STARTFONT 2.1
FONT -Monotype-Book Antiqua-Regular-I-Normal--14-100-100-100-P-68-iso8859-4
SIZE 10 100 100
FONTBOUNDINGBOX 16 18 -2 -4

STARTPROPERTIES 24
FOUNDRY "Monotype"
FAMILY_NAME "Book Antiqua"
WEIGHT_NAME "Regular"
SLANT "I"
SETWIDTH_NAME "Normal"
ADD_STYLE_NAME ""
PIXEL_SIZE 14
POINT_SIZE 100
RESOLUTION_X 100
RESOLUTION_Y 100
SPACING "P"
AVERAGE_WIDTH 68
CHARSET_REGISTRY "iso8859"
CHARSET_ENCODING "4"
FACE_NAME "Book Antiqua it ISO Latin4"
_DEC_DEVICE_FONTNAMES "PS=bookantiqua-italic-lat4"
COPYRIGHT "Copyright (c) 1994 Monotype Typography Ltd."
CAP_HEIGHT 12
X_HEIGHT 8
WEIGHT 10
QUAD_WIDTH 8
DEFAULT_CHAR 160
FONT_DESCENT 4
FONT_ASCENT 14
ENDPROPERTIES

CHARS 191

STARTCHAR space
ENCODING 32
SWIDTH 250 0
DWIDTH 4 0
BBX 0 0 0 0
BITMAP
ENDCHAR

STARTCHAR exclam
ENCODING 33
SWIDTH 333 0
DWIDTH 5 0
BBX 3 11 1 0
BITMAP
20
20
20
20
40
40
40
40
00
80
80
ENDCHAR

STARTCHAR quotedbl
ENCODING 34
SWIDTH 500 0
DWIDTH 7 0
BBX 3 4 2 6
BITMAP
A0
A0
A0
A0
ENDCHAR

STARTCHAR numbersign
ENCODING 35
SWIDTH 606 0
DWIDTH 8 0
BBX 8 10 0 0
BITMAP
12
12
12
7F
24
24
FE
48
48
48
ENDCHAR

STARTCHAR dollar
ENCODING 36
SWIDTH 500 0
DWIDTH 7 0
BBX 7 12 0 -1
BITMAP
08
1E
2A
4A
48
30
18
14
94
98
F0
20
ENDCHAR

STARTCHAR percent
ENCODING 37
SWIDTH 889 0
DWIDTH 12 0
BBX 9 10 2 0
BITMAP
2100
5200
9200
9400
A900
4A80
1480
2480
2500
4200
ENDCHAR

STARTCHAR ampersand
ENCODING 38
SWIDTH 778 0
DWIDTH 11 0
BBX 10 10 1 0
BITMAP
1C00
2400
2040
1040
3180
4600
8900
8100
4200
3C00
ENDCHAR

STARTCHAR quoteright
ENCODING 39
SWIDTH 278 0
DWIDTH 4 0
BBX 3 3 1 8
BITMAP
60
40
80
ENDCHAR

STARTCHAR parenleft
ENCODING 40
SWIDTH 333 0
DWIDTH 5 0
BBX 4 15 1 -4
BITMAP
10
20
20
40
40
40
80
80
80
80
80
80
80
80
40
ENDCHAR

STARTCHAR parenright
ENCODING 41
SWIDTH 333 0
DWIDTH 5 0
BBX 4 15 0 -4
BITMAP
20
10
10
10
10
10
10
10
10
20
20
20
40
40
80
ENDCHAR

STARTCHAR asterisk
ENCODING 42
SWIDTH 389 0
DWIDTH 5 0
BBX 5 4 1 7
BITMAP
20
F8
20
D8
ENDCHAR

STARTCHAR plus
ENCODING 43
SWIDTH 606 0
DWIDTH 8 0
BBX 7 7 1 1
BITMAP
10
10
10
FE
10
10
10
ENDCHAR

STARTCHAR comma
ENCODING 44
SWIDTH 250 0
DWIDTH 4 0
BBX 3 3 0 -2
BITMAP
60
40
80
ENDCHAR

STARTCHAR minus
ENCODING 45
SWIDTH 606 0
DWIDTH 8 0
BBX 7 1 1 3
BITMAP
FE
ENDCHAR

STARTCHAR period
ENCODING 46
SWIDTH 250 0
DWIDTH 4 0
BBX 2 2 1 0
BITMAP
C0
C0
ENDCHAR

STARTCHAR slash
ENCODING 47
SWIDTH 296 0
DWIDTH 4 0
BBX 8 15 -2 -4
BITMAP
01
01
02
02
04
04
08
08
10
10
20
20
40
40
80
ENDCHAR

STARTCHAR zero
ENCODING 48
SWIDTH 500 0
DWIDTH 7 0
BBX 6 10 1 0
BITMAP
18
24
44
44
84
84
88
88
90
60
ENDCHAR

STARTCHAR one
ENCODING 49
SWIDTH 500 0
DWIDTH 7 0
BBX 5 10 1 0
BITMAP
08
38
08
10
10
10
10
20
20
F8
ENDCHAR

STARTCHAR two
ENCODING 50
SWIDTH 500 0
DWIDTH 7 0
BBX 6 10 1 0
BITMAP
38
44
44
04
08
08
10
20
40
F8
ENDCHAR

STARTCHAR three
ENCODING 51
SWIDTH 500 0
DWIDTH 7 0
BBX 6 10 1 0
BITMAP
38
44
44
04
38
04
04
84
88
70
ENDCHAR

STARTCHAR four
ENCODING 52
SWIDTH 500 0
DWIDTH 7 0
BBX 7 10 0 0
BITMAP
04
0C
14
24
28
48
FE
10
10
7C
ENDCHAR

STARTCHAR five
ENCODING 53
SWIDTH 500 0
DWIDTH 7 0
BBX 7 10 0 0
BITMAP
3E
20
20
78
44
04
04
84
88
70
ENDCHAR

STARTCHAR six
ENCODING 54
SWIDTH 500 0
DWIDTH 7 0
BBX 6 10 1 0
BITMAP
18
20
40
40
B8
C4
84
84
88
70
ENDCHAR

STARTCHAR seven
ENCODING 55
SWIDTH 500 0
DWIDTH 7 0
BBX 7 10 1 0
BITMAP
7E
04
08
08
10
20
20
40
80
80
ENDCHAR

STARTCHAR eight
ENCODING 56
SWIDTH 500 0
DWIDTH 7 0
BBX 6 10 1 0
BITMAP
18
24
44
48
30
48
88
88
90
60
ENDCHAR

STARTCHAR nine
ENCODING 57
SWIDTH 500 0
DWIDTH 7 0
BBX 6 10 1 0
BITMAP
38
44
84
84
8C
74
08
08
10
60
ENDCHAR

STARTCHAR colon
ENCODING 58
SWIDTH 250 0
DWIDTH 4 0
BBX 3 7 1 0
BITMAP
60
60
00
00
00
C0
C0
ENDCHAR

STARTCHAR semicolon
ENCODING 59
SWIDTH 250 0
DWIDTH 4 0
BBX 4 9 0 -2
BITMAP
30
30
00
00
00
00
60
40
80
ENDCHAR

STARTCHAR less
ENCODING 60
SWIDTH 606 0
DWIDTH 8 0
BBX 8 7 0 1
BITMAP
03
0C
30
C0
30
0C
03
ENDCHAR

STARTCHAR equal
ENCODING 61
SWIDTH 606 0
DWIDTH 8 0
BBX 7 3 1 3
BITMAP
FE
00
FE
ENDCHAR

STARTCHAR greater
ENCODING 62
SWIDTH 606 0
DWIDTH 8 0
BBX 8 7 0 1
BITMAP
C0
30
0C
03
0C
30
C0
ENDCHAR

STARTCHAR question
ENCODING 63
SWIDTH 500 0
DWIDTH 7 0
BBX 5 11 1 0
BITMAP
70
48
08
08
10
20
40
40
00
80
80
ENDCHAR

STARTCHAR at
ENCODING 64
SWIDTH 747 0
DWIDTH 10 0
BBX 11 12 0 -2
BITMAP
0F00
30C0
4040
4720
8920
8920
9220
96C0
9B00
4040
6080
1F00
ENDCHAR

STARTCHAR A
ENCODING 65
SWIDTH 722 0
DWIDTH 10 0
BBX 9 10 0 0
BITMAP
0100
0300
0300
0500
0900
1F00
1100
2100
4100
E380
ENDCHAR

STARTCHAR B
ENCODING 66
SWIDTH 611 0
DWIDTH 9 0
BBX 9 10 0 0
BITMAP
3F00
1080
1080
2080
3F00
2100
2100
4100
4200
FC00
ENDCHAR

STARTCHAR C
ENCODING 67
SWIDTH 667 0
DWIDTH 9 0
BBX 8 10 1 0
BITMAP
1F
21
41
40
80
80
80
80
42
3C
ENDCHAR

STARTCHAR D
ENCODING 68
SWIDTH 778 0
DWIDTH 11 0
BBX 10 10 0 0
BITMAP
3F00
1080
1040
2040
2040
2040
2080
4080
4100
FE00
ENDCHAR

STARTCHAR E
ENCODING 69
SWIDTH 611 0
DWIDTH 9 0
BBX 9 10 0 0
BITMAP
3F80
1080
1080
2000
3E00
2000
2000
4100
4100
FF00
ENDCHAR

STARTCHAR F
ENCODING 70
SWIDTH 556 0
DWIDTH 8 0
BBX 8 10 0 0
BITMAP
3F
11
11
20
3C
20
20
40
40
E0
ENDCHAR

STARTCHAR G
ENCODING 71
SWIDTH 722 0
DWIDTH 10 0
BBX 8 10 1 0
BITMAP
1F
21
41
40
80
80
87
82
42
3C
ENDCHAR

STARTCHAR H
ENCODING 72
SWIDTH 778 0
DWIDTH 11 0
BBX 11 10 0 0
BITMAP
38E0
1040
1040
2080
3F80
2080
2080
4100
4100
E380
ENDCHAR

STARTCHAR I
ENCODING 73
SWIDTH 333 0
DWIDTH 5 0
BBX 5 10 0 0
BITMAP
38
10
10
20
20
20
20
40
40
E0
ENDCHAR

STARTCHAR J
ENCODING 74
SWIDTH 333 0
DWIDTH 5 0
BBX 6 13 -1 -3
BITMAP
1C
08
08
08
08
10
10
10
10
20
20
20
C0
ENDCHAR

STARTCHAR K
ENCODING 75
SWIDTH 667 0
DWIDTH 9 0
BBX 9 10 0 0
BITMAP
3980
1100
1200
2400
2800
3000
2800
4400
4200
E300
ENDCHAR

STARTCHAR L
ENCODING 76
SWIDTH 556 0
DWIDTH 8 0
BBX 8 10 0 0
BITMAP
38
10
10
20
20
20
20
41
41
FF
ENDCHAR

STARTCHAR M
ENCODING 77
SWIDTH 944 0
DWIDTH 13 0
BBX 13 10 0 0
BITMAP
3018
1030
1830
2850
2850
2490
2520
4520
4220
E270
ENDCHAR

STARTCHAR N
ENCODING 78
SWIDTH 778 0
DWIDTH 11 0
BBX 11 10 0 0
BITMAP
38E0
1840
1440
1480
2480
2280
2280
4100
4100
E100
ENDCHAR

STARTCHAR O
ENCODING 79
SWIDTH 778 0
DWIDTH 11 0
BBX 9 10 1 0
BITMAP
1E00
2100
4080
4080
8080
8080
8100
8100
4200
3C00
ENDCHAR

STARTCHAR P
ENCODING 80
SWIDTH 611 0
DWIDTH 9 0
BBX 8 10 0 0
BITMAP
3E
11
11
21
22
2C
20
40
40
E0
ENDCHAR

STARTCHAR Q
ENCODING 81
SWIDTH 778 0
DWIDTH 11 0
BBX 9 12 1 -2
BITMAP
1E00
2100
4080
4080
8080
8080
8100
8100
4200
3C00
4C80
0300
ENDCHAR

STARTCHAR R
ENCODING 82
SWIDTH 667 0
DWIDTH 9 0
BBX 8 10 0 0
BITMAP
3E
11
11
21
26
38
24
44
42
E7
ENDCHAR

STARTCHAR S
ENCODING 83
SWIDTH 556 0
DWIDTH 8 0
BBX 7 10 1 0
BITMAP
1E
22
42
40
30
08
04
84
88
F0
ENDCHAR

STARTCHAR T
ENCODING 84
SWIDTH 611 0
DWIDTH 9 0
BBX 9 10 1 0
BITMAP
FF80
8880
8880
1000
1000
1000
1000
2000
2000
7000
ENDCHAR

STARTCHAR U
ENCODING 85
SWIDTH 778 0
DWIDTH 11 0
BBX 10 10 1 0
BITMAP
61C0
2080
4080
4100
4100
8100
8100
8200
8600
7B00
ENDCHAR

STARTCHAR V
ENCODING 86
SWIDTH 722 0
DWIDTH 10 0
BBX 9 10 1 0
BITMAP
E380
4100
4200
4400
4400
4800
5000
6000
6000
4000
ENDCHAR

STARTCHAR W
ENCODING 87
SWIDTH 944 0
DWIDTH 13 0
BBX 12 10 1 0
BITMAP
E270
4620
4620
4A40
4A40
5280
5280
6300
6300
4200
ENDCHAR

STARTCHAR X
ENCODING 88
SWIDTH 722 0
DWIDTH 10 0
BBX 9 10 1 0
BITMAP
7380
2100
1200
1400
0800
0800
1400
2400
4200
E700
ENDCHAR

STARTCHAR Y
ENCODING 89
SWIDTH 667 0
DWIDTH 9 0
BBX 9 10 1 0
BITMAP
C180
2200
2400
2400
1800
1000
1000
2000
2000
7000
ENDCHAR

STARTCHAR Z
ENCODING 90
SWIDTH 667 0
DWIDTH 9 0
BBX 9 10 0 0
BITMAP
3F80
4100
0200
0400
0800
0800
1000
2000
4100
FE00
ENDCHAR

STARTCHAR bracketleft
ENCODING 91
SWIDTH 333 0
DWIDTH 5 0
BBX 5 15 1 -4
BITMAP
38
20
20
20
20
40
40
40
40
40
40
80
80
80
E0
ENDCHAR

STARTCHAR backslash
ENCODING 92
SWIDTH 606 0
DWIDTH 8 0
BBX 8 15 0 -4
BITMAP
80
40
40
20
20
10
10
08
08
04
04
02
02
01
01
ENDCHAR

STARTCHAR bracketright
ENCODING 93
SWIDTH 333 0
DWIDTH 5 0
BBX 5 15 0 -4
BITMAP
38
08
08
08
10
10
10
10
10
10
20
20
20
20
E0
ENDCHAR

STARTCHAR asciicircum
ENCODING 94
SWIDTH 606 0
DWIDTH 8 0
BBX 7 6 1 4
BITMAP
10
10
28
44
44
82
ENDCHAR

STARTCHAR underscore
ENCODING 95
SWIDTH 500 0
DWIDTH 7 0
BBX 7 1 0 -2
BITMAP
FE
ENDCHAR

STARTCHAR quoteleft
ENCODING 96
SWIDTH 278 0
DWIDTH 4 0
BBX 3 3 1 8
BITMAP
20
40
C0
ENDCHAR

STARTCHAR a
ENCODING 97
SWIDTH 444 0
DWIDTH 6 0
BBX 6 7 0 0
BITMAP
34
4C
48
88
90
B0
58
ENDCHAR

STARTCHAR b
ENCODING 98
SWIDTH 463 0
DWIDTH 6 0
BBX 6 11 0 0
BITMAP
20
60
20
40
58
64
44
84
88
98
60
ENDCHAR

STARTCHAR c
ENCODING 99
SWIDTH 407 0
DWIDTH 6 0
BBX 5 7 1 0
BITMAP
38
48
80
80
80
90
60
ENDCHAR

STARTCHAR d
ENCODING 100
SWIDTH 500 0
DWIDTH 7 0
BBX 7 11 0 0
BITMAP
02
06
02
04
34
4C
84
88
88
98
6C
ENDCHAR

STARTCHAR e
ENCODING 101
SWIDTH 389 0
DWIDTH 5 0
BBX 5 7 0 0
BITMAP
38
48
70
80
80
90
60
ENDCHAR

STARTCHAR f
ENCODING 102
SWIDTH 278 0
DWIDTH 4 0
BBX 9 15 -2 -4
BITMAP
0180
0200
0400
0400
1E00
0800
0800
0800
0800
1000
1000
1000
2000
2000
C000
ENDCHAR

STARTCHAR g
ENCODING 103
SWIDTH 499 0
DWIDTH 7 0
BBX 7 11 0 -4
BITMAP
1A
24
44
48
30
20
30
48
84
84
78
ENDCHAR

STARTCHAR h
ENCODING 104
SWIDTH 500 0
DWIDTH 7 0
BBX 7 11 0 0
BITMAP
20
60
20
20
48
54
64
44
88
8A
8C
ENDCHAR

STARTCHAR i
ENCODING 105
SWIDTH 278 0
DWIDTH 4 0
BBX 3 10 1 0
BITMAP
20
20
00
40
C0
40
40
80
A0
C0
ENDCHAR

STARTCHAR j
ENCODING 106
SWIDTH 278 0
DWIDTH 4 0
BBX 6 14 -2 -4
BITMAP
04
04
00
08
18
08
08
10
10
10
20
20
20
C0
ENDCHAR

STARTCHAR k
ENCODING 107
SWIDTH 444 0
DWIDTH 6 0
BBX 6 11 0 0
BITMAP
20
60
20
20
4C
50
60
60
90
94
98
ENDCHAR

STARTCHAR l
ENCODING 108
SWIDTH 278 0
DWIDTH 4 0
BBX 3 11 1 0
BITMAP
20
60
20
20
40
40
40
40
80
A0
C0
ENDCHAR

STARTCHAR m
ENCODING 109
SWIDTH 778 0
DWIDTH 10 0
BBX 9 7 1 0
BITMAP
5B00
ED00
4900
4900
9200
9280
9300
ENDCHAR

STARTCHAR n
ENCODING 110
SWIDTH 556 0
DWIDTH 8 0
BBX 7 7 1 0
BITMAP
58
E4
44
44
88
8A
8C
ENDCHAR

STARTCHAR o
ENCODING 111
SWIDTH 444 0
DWIDTH 6 0
BBX 5 7 1 0
BITMAP
30
48
88
88
88
90
60
ENDCHAR

STARTCHAR p
ENCODING 112
SWIDTH 500 0
DWIDTH 7 0
BBX 7 11 0 -4
BITMAP
2C
72
22
22
22
64
58
40
80
80
80
ENDCHAR

STARTCHAR q
ENCODING 113
SWIDTH 463 0
DWIDTH 6 0
BBX 6 11 0 -4
BITMAP
34
4C
84
84
98
A8
48
10
10
10
10
ENDCHAR

STARTCHAR r
ENCODING 114
SWIDTH 389 0
DWIDTH 5 0
BBX 5 7 1 0
BITMAP
58
E0
40
40
80
80
80
ENDCHAR

STARTCHAR s
ENCODING 115
SWIDTH 389 0
DWIDTH 5 0
BBX 6 7 0 0
BITMAP
3C
44
40
30
08
88
F0
ENDCHAR

STARTCHAR t
ENCODING 116
SWIDTH 333 0
DWIDTH 5 0
BBX 4 9 1 0
BITMAP
20
20
F0
40
40
80
80
A0
C0
ENDCHAR

STARTCHAR u
ENCODING 117
SWIDTH 556 0
DWIDTH 8 0
BBX 7 7 1 0
BITMAP
44
C4
44
88
88
9A
6C
ENDCHAR

STARTCHAR v
ENCODING 118
SWIDTH 500 0
DWIDTH 7 0
BBX 7 7 0 0
BITMAP
64
92
22
42
44
48
30
ENDCHAR

STARTCHAR w
ENCODING 119
SWIDTH 722 0
DWIDTH 10 0
BBX 10 7 0 0
BITMAP
6280
9240
2440
4440
4C40
4C80
3300
ENDCHAR

STARTCHAR x
ENCODING 120
SWIDTH 500 0
DWIDTH 7 0
BBX 7 7 0 0
BITMAP
62
14
18
10
30
50
8C
ENDCHAR

STARTCHAR y
ENCODING 121
SWIDTH 500 0
DWIDTH 7 0
BBX 7 11 0 -4
BITMAP
62
A2
22
44
44
4C
34
08
08
90
60
ENDCHAR

STARTCHAR z
ENCODING 122
SWIDTH 444 0
DWIDTH 6 0
BBX 7 7 0 0
BITMAP
3A
44
08
10
20
44
B8
ENDCHAR

STARTCHAR braceleft
ENCODING 123
SWIDTH 333 0
DWIDTH 5 0
BBX 6 15 0 -4
BITMAP
0C
10
20
20
20
40
80
80
40
40
40
80
80
80
40
ENDCHAR

STARTCHAR bar
ENCODING 124
SWIDTH 606 0
DWIDTH 8 0
BBX 1 15 4 -4
BITMAP
80
80
80
80
80
80
80
80
80
80
80
80
80
80
80
ENDCHAR

STARTCHAR braceright
ENCODING 125
SWIDTH 333 0
DWIDTH 5 0
BBX 6 15 -1 -4
BITMAP
08
04
04
04
08
08
08
04
04
08
10
10
10
20
C0
ENDCHAR

STARTCHAR asciitilde
ENCODING 126
SWIDTH 606 0
DWIDTH 8 0
BBX 7 2 1 4
BITMAP
72
9C
ENDCHAR

STARTCHAR space
ENCODING 160
SWIDTH 250 0
DWIDTH 5 0
BBX 0 0 0 0
BITMAP
ENDCHAR

STARTCHAR Aogonek
ENCODING 161
SWIDTH 722 0
DWIDTH 10 0
BBX 9 12 0 -2
BITMAP
0100
0300
0300
0500
0900
1F00
1100
2100
4100
E380
0200
0180
ENDCHAR

STARTCHAR afii240
ENCODING 162
SWIDTH 444 0
DWIDTH 6 0
BBX 8 7 -1 0
BITMAP
77
24
28
38
48
44
EE
ENDCHAR

STARTCHAR Rcommaaccent
ENCODING 163
SWIDTH 667 0
DWIDTH 9 0
BBX 8 14 0 -4
BITMAP
3E
11
11
21
26
38
24
44
42
E7
00
18
10
20
ENDCHAR

STARTCHAR currency
ENCODING 164
SWIDTH 606 0
DWIDTH 8 0
BBX 7 7 1 1
BITMAP
BA
44
82
82
82
44
BA
ENDCHAR

STARTCHAR Itilde
ENCODING 165
SWIDTH 333 0
DWIDTH 5 0
BBX 7 13 0 0
BITMAP
1A
2C
00
38
10
10
20
20
20
20
40
40
E0
ENDCHAR

STARTCHAR Lcommaaccent
ENCODING 166
SWIDTH 556 0
DWIDTH 8 0
BBX 8 14 0 -4
BITMAP
38
10
10
20
20
20
20
41
41
FF
00
18
10
20
ENDCHAR

STARTCHAR section
ENCODING 167
SWIDTH 500 0
DWIDTH 7 0
BBX 6 15 1 -4
BITMAP
1C
24
40
60
90
88
88
44
44
24
18
08
08
90
E0
ENDCHAR

STARTCHAR hungarumlaut
ENCODING 168
SWIDTH 333 0
DWIDTH 5 0
BBX 5 2 0 8
BITMAP
48
90
ENDCHAR

STARTCHAR Scaron
ENCODING 169
SWIDTH 556 0
DWIDTH 8 0
BBX 7 13 1 0
BITMAP
12
0C
00
1E
22
42
40
30
08
04
84
88
F0
ENDCHAR

STARTCHAR Emacron
ENCODING 170
SWIDTH 611 0
DWIDTH 9 0
BBX 9 12 0 0
BITMAP
0F00
0000
3F80
1080
1080
2000
3E00
2000
2000
4100
4100
FF00
ENDCHAR

STARTCHAR Gcommaaccent
ENCODING 171
SWIDTH 722 0
DWIDTH 10 0
BBX 8 14 1 -4
BITMAP
1F
21
41
40
80
80
87
82
42
3C
00
18
10
20
ENDCHAR

STARTCHAR afii237
ENCODING 172
SWIDTH 556 0
DWIDTH 9 0
BBX 9 10 1 0
BITMAP
FF80
8880
8880
1000
1000
FE00
1000
2000
2000
7000
ENDCHAR

STARTCHAR hyphen
ENCODING 173
SWIDTH 333 0
DWIDTH 5 0
BBX 4 1 1 3
BITMAP
F0
ENDCHAR

STARTCHAR Zcaron
ENCODING 174
SWIDTH 667 0
DWIDTH 9 0
BBX 9 13 0 0
BITMAP
0900
0600
0000
3F80
4100
0200
0400
0800
0800
1000
2000
4100
FE00
ENDCHAR

STARTCHAR macron
ENCODING 175
SWIDTH 333 0
DWIDTH 5 0
BBX 4 1 1 8
BITMAP
F0
ENDCHAR

STARTCHAR degree
ENCODING 176
SWIDTH 402 0
DWIDTH 6 0
BBX 5 5 1 5
BITMAP
70
88
88
88
70
ENDCHAR

STARTCHAR aogonek
ENCODING 177
SWIDTH 444 0
DWIDTH 6 0
BBX 6 9 0 -2
BITMAP
34
4C
48
88
90
B0
58
10
0C
ENDCHAR

STARTCHAR ogonek
ENCODING 178
SWIDTH 333 0
DWIDTH 5 0
BBX 3 2 1 -2
BITMAP
80
60
ENDCHAR

STARTCHAR rcommaaccent
ENCODING 179
SWIDTH 389 0
DWIDTH 5 0
BBX 6 11 0 -4
BITMAP
2C
70
20
20
40
40
40
00
60
40
80
ENDCHAR

STARTCHAR acute
ENCODING 180
SWIDTH 333 0
DWIDTH 5 0
BBX 2 2 2 8
BITMAP
40
80
ENDCHAR

STARTCHAR itilde
ENCODING 181
SWIDTH 278 0
DWIDTH 4 0
BBX 5 10 1 0
BITMAP
68
B0
00
40
C0
40
40
80
A0
C0
ENDCHAR

STARTCHAR lcommaaccent
ENCODING 182
SWIDTH 278 0
DWIDTH 4 0
BBX 4 15 0 -4
BITMAP
10
30
10
10
20
20
20
20
40
50
60
00
60
40
80
ENDCHAR

STARTCHAR caron
ENCODING 183
SWIDTH 333 0
DWIDTH 5 0
BBX 4 2 2 8
BITMAP
90
60
ENDCHAR

STARTCHAR commaaccent
ENCODING 184
SWIDTH 333 0
DWIDTH 5 0
BBX 3 3 0 -4
BITMAP
60
40
80
ENDCHAR

STARTCHAR scaron
ENCODING 185
SWIDTH 389 0
DWIDTH 5 0
BBX 6 10 0 0
BITMAP
24
18
00
3C
44
40
30
08
88
F0
ENDCHAR

STARTCHAR emacron
ENCODING 186
SWIDTH 389 0
DWIDTH 5 0
BBX 6 9 0 0
BITMAP
3C
00
38
48
70
80
80
90
60
ENDCHAR

STARTCHAR gcommaaccent
ENCODING 187
SWIDTH 499 0
DWIDTH 7 0
BBX 7 15 0 -4
BITMAP
04
08
08
00
1A
24
44
48
30
20
30
48
84
84
78
ENDCHAR

STARTCHAR afii253
ENCODING 188
SWIDTH 278 0
DWIDTH 5 0
BBX 5 9 0 0
BITMAP
10
10
78
20
20
F0
40
50
60
ENDCHAR

STARTCHAR afii238
ENCODING 189
SWIDTH 685 0
DWIDTH 10 0
BBX 10 10 0 0
BITMAP
3780
18C0
1040
1040
2040
2040
2080
4080
4900
E600
ENDCHAR

STARTCHAR zcaron
ENCODING 190
SWIDTH 444 0
DWIDTH 6 0
BBX 7 10 0 0
BITMAP
12
0C
00
3A
44
08
10
20
44
B8
ENDCHAR

STARTCHAR afii254
ENCODING 191
SWIDTH 482 0
DWIDTH 7 0
BBX 5 10 1 -3
BITMAP
D0
68
48
48
88
88
90
10
A0
C0
ENDCHAR

STARTCHAR Amacron
ENCODING 192
SWIDTH 722 0
DWIDTH 10 0
BBX 10 12 0 0
BITMAP
03C0
0000
0100
0300
0300
0500
0900
1F00
1100
2100
4100
E380
ENDCHAR

STARTCHAR Aacute
ENCODING 193
SWIDTH 722 0
DWIDTH 10 0
BBX 9 13 0 0
BITMAP
0080
0100
0000
0100
0300
0300
0500
0900
1F00
1100
2100
4100
E380
ENDCHAR

STARTCHAR Acircumflex
ENCODING 194
SWIDTH 722 0
DWIDTH 10 0
BBX 10 13 0 0
BITMAP
0180
0240
0000
0100
0300
0300
0500
0900
1F00
1100
2100
4100
E380
ENDCHAR

STARTCHAR Atilde
ENCODING 195
SWIDTH 722 0
DWIDTH 10 0
BBX 10 13 0 0
BITMAP
0340
0580
0000
0100
0300
0300
0500
0900
1F00
1100
2100
4100
E380
ENDCHAR

STARTCHAR Adieresis
ENCODING 196
SWIDTH 722 0
DWIDTH 10 0
BBX 10 12 0 0
BITMAP
0240
0000
0100
0300
0300
0500
0900
1F00
1100
2100
4100
E380
ENDCHAR

STARTCHAR Aring
ENCODING 197
SWIDTH 722 0
DWIDTH 10 0
BBX 9 14 0 0
BITMAP
0100
0280
0100
0000
0100
0300
0300
0500
0900
1F00
1100
2100
4100
E380
ENDCHAR

STARTCHAR AE
ENCODING 198
SWIDTH 941 0
DWIDTH 13 0
BBX 14 10 0 0
BITMAP
07FC
0284
0484
0900
09F0
1F00
2100
2208
4208
E7F8
ENDCHAR

STARTCHAR Iogonek
ENCODING 199
SWIDTH 333 0
DWIDTH 5 0
BBX 5 12 0 -2
BITMAP
38
10
10
20
20
20
20
40
40
E0
40
30
ENDCHAR

STARTCHAR Ccaron
ENCODING 200
SWIDTH 667 0
DWIDTH 9 0
BBX 8 13 1 0
BITMAP
09
06
00
1F
21
41
40
80
80
80
80
42
3C
ENDCHAR

STARTCHAR Eacute
ENCODING 201
SWIDTH 611 0
DWIDTH 9 0
BBX 9 13 0 0
BITMAP
0200
0400
0000
3F80
1080
1080
2000
3E00
2000
2000
4100
4100
FF00
ENDCHAR

STARTCHAR Eogonek
ENCODING 202
SWIDTH 611 0
DWIDTH 9 0
BBX 9 12 0 -2
BITMAP
3F80
1080
1080
2000
3E00
2000
2000
4100
4100
FF00
0400
0300
ENDCHAR

STARTCHAR Edieresis
ENCODING 203
SWIDTH 611 0
DWIDTH 9 0
BBX 9 12 0 0
BITMAP
0900
0000
3F80
1080
1080
2000
3E00
2000
2000
4100
4100
FF00
ENDCHAR

STARTCHAR Edotaccent
ENCODING 204
SWIDTH 611 0
DWIDTH 9 0
BBX 9 12 0 0
BITMAP
0200
0000
3F80
1080
1080
2000
3E00
2000
2000
4100
4100
FF00
ENDCHAR

STARTCHAR Iacute
ENCODING 205
SWIDTH 333 0
DWIDTH 5 0
BBX 5 13 0 0
BITMAP
08
10
00
38
10
10
20
20
20
20
40
40
E0
ENDCHAR

STARTCHAR Icircumflex
ENCODING 206
SWIDTH 333 0
DWIDTH 5 0
BBX 6 13 0 0
BITMAP
18
24
00
38
10
10
20
20
20
20
40
40
E0
ENDCHAR

STARTCHAR Imacron
ENCODING 207
SWIDTH 333 0
DWIDTH 5 0
BBX 6 12 0 0
BITMAP
3C
00
38
10
10
20
20
20
20
40
40
E0
ENDCHAR

STARTCHAR Eth
ENCODING 208
SWIDTH 778 0
DWIDTH 11 0
BBX 10 10 0 0
BITMAP
3F00
1080
1040
2040
7840
2040
2080
4080
4100
FE00
ENDCHAR

STARTCHAR Ncommaaccent
ENCODING 209
SWIDTH 778 0
DWIDTH 11 0
BBX 11 14 0 -4
BITMAP
38E0
1840
1440
1480
2480
2280
2280
4100
4100
E100
0000
1800
1000
2000
ENDCHAR

STARTCHAR Omacron
ENCODING 210
SWIDTH 778 0
DWIDTH 11 0
BBX 9 12 1 0
BITMAP
0F00
0000
1E00
2100
4080
4080
8080
8080
8100
8100
4200
3C00
ENDCHAR

STARTCHAR Kcommaaccent
ENCODING 211
SWIDTH 667 0
DWIDTH 9 0
BBX 9 14 0 -4
BITMAP
3980
1100
1200
2400
2800
3000
2800
4400
4200
E300
0000
1800
1000
2000
ENDCHAR

STARTCHAR Ocircumflex
ENCODING 212
SWIDTH 778 0
DWIDTH 11 0
BBX 9 13 1 0
BITMAP
0600
0900
0000
1E00
2100
4080
4080
8080
8080
8100
8100
4200
3C00
ENDCHAR

STARTCHAR Otilde
ENCODING 213
SWIDTH 778 0
DWIDTH 11 0
BBX 9 13 1 0
BITMAP
0680
0B00
0000
1E00
2100
4080
4080
8080
8080
8100
8100
4200
3C00
ENDCHAR

STARTCHAR Odieresis
ENCODING 214
SWIDTH 778 0
DWIDTH 11 0
BBX 9 12 1 0
BITMAP
0900
0000
1E00
2100
4080
4080
8080
8080
8100
8100
4200
3C00
ENDCHAR

STARTCHAR multiply
ENCODING 215
SWIDTH 606 0
DWIDTH 8 0
BBX 5 6 2 2
BITMAP
88
50
20
20
50
88
ENDCHAR

STARTCHAR Oslash
ENCODING 216
SWIDTH 778 0
DWIDTH 11 0
BBX 9 10 1 0
BITMAP
1E80
2100
4280
4480
8880
8880
9100
A100
4200
BC00
ENDCHAR

STARTCHAR Uogonek
ENCODING 217
SWIDTH 778 0
DWIDTH 11 0
BBX 10 12 1 -2
BITMAP
61C0
2080
4080
4100
4100
8100
8100
8200
8600
7B00
0200
0180
ENDCHAR

STARTCHAR Uacute
ENCODING 218
SWIDTH 778 0
DWIDTH 11 0
BBX 10 13 1 0
BITMAP
0200
0400
0000
61C0
2080
4080
4100
4100
8100
8100
8200
8600
7B00
ENDCHAR

STARTCHAR Ucircumflex
ENCODING 219
SWIDTH 778 0
DWIDTH 11 0
BBX 10 13 1 0
BITMAP
0600
0900
0000
61C0
2080
4080
4100
4100
8100
8100
8200
8600
7B00
ENDCHAR

STARTCHAR Udieresis
ENCODING 220
SWIDTH 778 0
DWIDTH 11 0
BBX 10 12 1 0
BITMAP
0900
0000
61C0
2080
4080
4100
4100
8100
8100
8200
8600
7B00
ENDCHAR

STARTCHAR Utilde
ENCODING 221
SWIDTH 778 0
DWIDTH 11 0
BBX 10 13 1 0
BITMAP
0680
0B00
0000
61C0
2080
4080
4100
4100
8100
8100
8200
8600
7B00
ENDCHAR

STARTCHAR Umacron
ENCODING 222
SWIDTH 778 0
DWIDTH 11 0
BBX 10 12 1 0
BITMAP
0F00
0000
61C0
2080
4080
4100
4100
8100
8100
8200
8600
7B00
ENDCHAR

STARTCHAR germandbls
ENCODING 223
SWIDTH 500 0
DWIDTH 7 0
BBX 8 15 -1 -4
BITMAP
06
09
11
12
72
24
24
22
22
22
2C
48
40
40
80
ENDCHAR

STARTCHAR amacron
ENCODING 224
SWIDTH 444 0
DWIDTH 6 0
BBX 6 9 0 0
BITMAP
3C
00
34
4C
48
88
90
B0
58
ENDCHAR

STARTCHAR aacute
ENCODING 225
SWIDTH 444 0
DWIDTH 6 0
BBX 6 10 0 0
BITMAP
08
10
00
34
4C
48
88
90
B0
58
ENDCHAR

STARTCHAR acircumflex
ENCODING 226
SWIDTH 444 0
DWIDTH 6 0
BBX 6 10 0 0
BITMAP
18
24
00
34
4C
48
88
90
B0
58
ENDCHAR

STARTCHAR atilde
ENCODING 227
SWIDTH 444 0
DWIDTH 6 0
BBX 7 10 0 0
BITMAP
1A
2C
00
34
4C
48
88
90
B0
58
ENDCHAR

STARTCHAR adieresis
ENCODING 228
SWIDTH 444 0
DWIDTH 6 0
BBX 6 9 0 0
BITMAP
24
00
34
4C
48
88
90
B0
58
ENDCHAR

STARTCHAR aring
ENCODING 229
SWIDTH 444 0
DWIDTH 6 0
BBX 6 11 0 0
BITMAP
08
14
08
00
34
4C
48
88
90
B0
58
ENDCHAR

STARTCHAR ae
ENCODING 230
SWIDTH 638 0
DWIDTH 9 0
BBX 9 7 0 0
BITMAP
3380
4C80
0900
7E00
8800
9900
6E00
ENDCHAR

STARTCHAR iogonek
ENCODING 231
SWIDTH 278 0
DWIDTH 4 0
BBX 3 12 1 -2
BITMAP
20
20
00
40
C0
40
40
80
A0
C0
80
60
ENDCHAR

STARTCHAR ccaron
ENCODING 232
SWIDTH 407 0
DWIDTH 6 0
BBX 6 10 1 0
BITMAP
24
18
00
38
48
80
80
80
90
60
ENDCHAR

STARTCHAR eacute
ENCODING 233
SWIDTH 389 0
DWIDTH 5 0
BBX 5 10 0 0
BITMAP
08
10
00
38
48
70
80
80
90
60
ENDCHAR

STARTCHAR eogonek
ENCODING 234
SWIDTH 389 0
DWIDTH 5 0
BBX 5 9 0 -2
BITMAP
38
48
70
80
80
90
60
40
30
ENDCHAR

STARTCHAR edieresis
ENCODING 235
SWIDTH 389 0
DWIDTH 5 0
BBX 6 9 0 0
BITMAP
24
00
38
48
70
80
80
90
60
ENDCHAR

STARTCHAR edotaccent
ENCODING 236
SWIDTH 389 0
DWIDTH 5 0
BBX 5 9 0 0
BITMAP
10
00
38
48
70
80
80
90
60
ENDCHAR

STARTCHAR iacute
ENCODING 237
SWIDTH 278 0
DWIDTH 4 0
BBX 3 10 1 0
BITMAP
20
40
00
40
C0
40
40
80
A0
C0
ENDCHAR

STARTCHAR icircumflex
ENCODING 238
SWIDTH 278 0
DWIDTH 4 0
BBX 4 10 1 0
BITMAP
60
90
00
40
C0
40
40
80
A0
C0
ENDCHAR

STARTCHAR imacron
ENCODING 239
SWIDTH 278 0
DWIDTH 4 0
BBX 4 9 1 0
BITMAP
F0
00
40
C0
40
40
80
A0
C0
ENDCHAR

STARTCHAR dcroat
ENCODING 240
SWIDTH 500 0
DWIDTH 7 0
BBX 8 11 0 0
BITMAP
02
0F
02
04
34
4C
84
88
88
98
6C
ENDCHAR

STARTCHAR ncommaaccent
ENCODING 241
SWIDTH 556 0
DWIDTH 8 0
BBX 7 11 1 -4
BITMAP
58
E4
44
44
88
8A
8C
00
60
40
80
ENDCHAR

STARTCHAR omacron
ENCODING 242
SWIDTH 444 0
DWIDTH 6 0
BBX 6 9 1 0
BITMAP
3C
00
30
48
88
88
88
90
60
ENDCHAR

STARTCHAR kcommaaccent
ENCODING 243
SWIDTH 444 0
DWIDTH 6 0
BBX 6 15 0 -4
BITMAP
20
60
20
20
4C
50
60
60
90
94
98
00
60
40
80
ENDCHAR

STARTCHAR ocircumflex
ENCODING 244
SWIDTH 444 0
DWIDTH 6 0
BBX 6 10 1 0
BITMAP
18
24
00
30
48
88
88
88
90
60
ENDCHAR

STARTCHAR otilde
ENCODING 245
SWIDTH 444 0
DWIDTH 6 0
BBX 7 10 1 0
BITMAP
1A
2C
00
30
48
88
88
88
90
60
ENDCHAR

STARTCHAR odieresis
ENCODING 246
SWIDTH 444 0
DWIDTH 6 0
BBX 6 9 1 0
BITMAP
24
00
30
48
88
88
88
90
60
ENDCHAR

STARTCHAR divide
ENCODING 247
SWIDTH 606 0
DWIDTH 8 0
BBX 5 5 1 2
BITMAP
20
00
F8
00
20
ENDCHAR

STARTCHAR oslash
ENCODING 248
SWIDTH 444 0
DWIDTH 6 0
BBX 5 7 1 0
BITMAP
28
58
A8
A8
C8
D0
A0
ENDCHAR

STARTCHAR uogonek
ENCODING 249
SWIDTH 556 0
DWIDTH 8 0
BBX 7 9 1 -2
BITMAP
44
C4
44
88
88
9A
6C
08
06
ENDCHAR

STARTCHAR uacute
ENCODING 250
SWIDTH 556 0
DWIDTH 8 0
BBX 7 10 1 0
BITMAP
08
10
00
44
C4
44
88
88
9A
6C
ENDCHAR

STARTCHAR ucircumflex
ENCODING 251
SWIDTH 556 0
DWIDTH 8 0
BBX 7 10 1 0
BITMAP
18
24
00
44
C4
44
88
88
9A
6C
ENDCHAR

STARTCHAR udieresis
ENCODING 252
SWIDTH 556 0
DWIDTH 8 0
BBX 7 9 1 0
BITMAP
24
00
44
C4
44
88
88
9A
6C
ENDCHAR

STARTCHAR utilde
ENCODING 253
SWIDTH 556 0
DWIDTH 8 0
BBX 7 10 1 0
BITMAP
1A
2C
00
44
C4
44
88
88
9A
6C
ENDCHAR

STARTCHAR umacron
ENCODING 254
SWIDTH 556 0
DWIDTH 8 0
BBX 7 9 1 0
BITMAP
3C
00
44
C4
44
88
88
9A
6C
ENDCHAR

STARTCHAR dotaccent
ENCODING 255
SWIDTH 333 0
DWIDTH 5 0
BBX 1 1 2 8
BITMAP
80
ENDCHAR
ENDFONT
